<?xml version="1.0" encoding="utf-8"?>
<!-- Generator: Adobe Illustrator 25.4.1, SVG Export Plug-In . SVG Version: 6.00 Build 0)  -->
<svg version="1.1" id="Layer_1" xmlns="http://www.w3.org/2000/svg" xmlns:xlink="http://www.w3.org/1999/xlink" x="0px" y="0px"
	 viewBox="0 0 256 256" style="enable-background:new 0 0 256 256;" xml:space="preserve">
<style type="text/css">
	.st0{fill:#264979;}
</style>
<rect x="126" y="148" class="st0" width="4" height="8"/>
<rect x="126" y="100" class="st0" width="4" height="8"/>
<rect x="100" y="126" class="st0" width="8" height="4"/>
<rect x="148" y="126" class="st0" width="8" height="4"/>
<rect x="143" y="141" transform="matrix(0.7071 -0.7071 0.7071 0.7071 -60.051 144.9639)" class="st0" width="4" height="8"/>
<rect x="109" y="107" transform="matrix(0.7071 -0.7071 0.7071 0.7071 -45.9927 111.0239)" class="st0" width="4" height="8"/>
<rect x="107" y="143" transform="matrix(0.7071 -0.7071 0.7071 0.7071 -69.9887 120.9702)" class="st0" width="8" height="4"/>
<rect x="141" y="109" transform="matrix(0.7071 -0.7071 0.7071 0.7071 -36.0501 135.0275)" class="st0" width="8" height="4"/>
<path class="st0" d="M153.5,196c-7.2,0-15.4-2.8-24-8.2c-13.4-8.5-26.2-22.7-36.1-39.8s-15.7-35.3-16.4-51.2
	C76.2,80.5,81,68.5,90.5,63s22.2-3.6,36,5.1c13.4,8.5,26.2,22.7,36.1,39.8s15.7,35.3,16.4,51.2c0.7,16.3-4.1,28.3-13.6,33.8
	C161.9,195,157.9,196,153.5,196z M102.5,64c-3.7,0-7.1,0.8-10.1,2.6c-8.1,4.7-12.2,15.4-11.6,30.1c0.7,15.2,6.3,32.7,15.9,49.4
	c9.6,16.6,21.9,30.3,34.8,38.5c12.4,7.9,23.8,9.7,31.9,5.1c8.1-4.7,12.2-15.4,11.6-30.1c-0.7-15.2-6.3-32.7-15.9-49.4
	c-9.6-16.6-21.9-30.3-34.8-38.5C116.5,66.5,109,64,102.5,64z"/>
<path class="st0" d="M102.5,196c-4.4,0-8.5-1-12-3.1c-9.5-5.5-14.3-17.4-13.6-33.8c0.7-15.8,6.5-34,16.4-51.2s22.7-31.3,36.1-39.8
	c13.8-8.8,26.6-10.6,36-5.1c9.5,5.5,14.3,17.4,13.6,33.8c-0.7,15.8-6.5,34-16.4,51.2s-22.7,31.3-36.1,39.8
	C118,193.3,109.8,196,102.5,196L102.5,196z M153.5,64c-6.5,0-13.9,2.6-21.8,7.6c-12.8,8.2-25.2,21.8-34.8,38.5
	c-9.6,16.6-15.2,34.1-15.9,49.4c-0.7,14.7,3.5,25.4,11.6,30.1c8.1,4.7,19.4,2.9,31.9-5.1c12.8-8.2,25.2-21.8,34.8-38.5
	c9.6-16.6,15.2-34.1,15.9-49.4c0.6-14.7-3.5-25.4-11.6-30.1C160.5,64.8,157.2,64,153.5,64L153.5,64z"/>
<path class="st0" d="M128,168c-19.8,0-38.5-4-52.5-11.3C61,149.1,53,138.9,53,128s8-21.1,22.5-28.6C89.5,92.1,108.2,88,128,88
	s38.5,4,52.5,11.3C195,106.9,203,117.1,203,128s-8,21.1-22.5,28.6C166.5,163.9,147.8,168,128,168z M128,92c-39.1,0-71,16.1-71,36
	s31.9,36,71,36s71-16.1,71-36S167.1,92,128,92L128,92z"/>
<path class="st0" d="M128,145c-9.4,0-17-7.6-17-17s7.6-17,17-17s17,7.6,17,17S137.4,145,128,145z M128,115c-7.2,0-13,5.8-13,13
	s5.8,13,13,13s13-5.8,13-13S135.2,115,128,115z"/>
</svg>
